<svg width="398" height="260" viewBox="0 0 398 260" fill="none" xmlns="http://www.w3.org/2000/svg">
<g clip-path="url(#clip0_2378_27)">
<path d="M64.7171 118.445L46.0117 91.7759L27.5412 118.445H0L31.6927 72.9712L1.98961 29.4598H29.4995L46.0117 53.6485L62.5082 29.4598H90.4254L60.8006 72.1393L92.7126 118.445H64.7171Z" fill="#C8102E"/>
<path d="M143.549 119.904C136.625 119.904 130.139 118.759 124.233 116.498C118.311 114.238 113.126 110.989 108.786 106.845C104.462 102.716 101.047 97.8034 98.6344 92.2311C96.2375 86.6587 95.0155 80.5056 95.0155 73.96C95.0155 67.4145 96.2375 61.2457 98.6344 55.689C101.031 50.1167 104.478 45.1879 108.849 41.0597C113.22 36.9314 118.405 33.6822 124.28 31.4219C130.155 29.1459 136.594 28 143.44 28C150.286 28 156.819 29.1459 162.647 31.4219C168.474 33.6822 173.629 36.9314 177.968 41.0597C182.292 45.1879 185.739 50.0853 188.167 55.5949C190.611 61.1358 191.848 67.3046 191.848 73.9444C191.848 80.5841 190.611 86.6744 188.167 92.2938C185.723 97.8976 182.292 102.826 177.952 106.908C173.629 110.989 168.474 114.222 162.647 116.483C156.819 118.743 150.411 119.904 143.565 119.904H143.549ZM143.424 48.7668C139.899 48.7668 136.641 49.3633 133.695 50.5562C130.766 51.7492 128.165 53.4758 125.941 55.7047C123.716 57.9337 121.977 60.6021 120.755 63.6473C119.517 66.7082 118.906 70.1771 118.906 73.9444C118.906 77.7116 119.533 81.0864 120.755 84.1943C121.977 87.2866 123.716 89.9864 125.894 92.2154C128.071 94.4286 130.672 96.1552 133.633 97.3482C136.609 98.5411 139.899 99.1533 143.424 99.1533C146.949 99.1533 150.223 98.5568 153.153 97.3639C156.082 96.1709 158.683 94.4443 160.908 92.2154C163.132 89.9864 164.871 87.318 166.093 84.2728C167.331 81.2119 167.942 77.743 167.942 73.9757C167.942 70.2085 167.315 66.7396 166.093 63.6787C164.871 60.6178 163.132 57.9494 160.955 55.7204C158.777 53.5072 156.176 51.7806 153.215 50.5876C150.239 49.3947 146.933 48.7825 143.424 48.7825V48.7668Z" fill="#C8102E"/>
<path d="M219.969 120.313C215.254 120.313 210.335 119.261 205.368 117.205L203.676 116.498L209.551 97.9447L211.431 98.4941C214.486 99.3888 217.212 99.844 219.546 99.844C221.881 99.844 221.458 99.7655 222.319 99.5929C224.935 99.0906 227.364 97.1285 229.557 93.738L229.588 93.7066L195.138 29.4598H220.69L241.98 72.673L264.023 29.4598H287.867L250.174 99.6713C246.821 105.981 242.764 110.895 238.142 114.301C233.458 117.738 228.241 119.732 222.648 120.203C221.755 120.281 220.862 120.313 219.954 120.313H219.969Z" fill="#C8102E"/>
<path d="M375.566 118.445L375.472 72.8613L353.633 109.466H342.651L320.813 73.6462V118.445H298.394V29.4598H317.758L348.385 80.3173L378.496 29.4598H397.859L398 118.445H375.566Z" fill="#C8102E"/>
<path d="M5 231.697V142.712H77.4562V162.38H28.515V175.848H50.009C60.6777 175.848 68.9965 178.155 74.699 182.723C80.5424 187.4 83.5034 194.213 83.5034 202.987C83.5034 211.762 80.2291 219.155 73.7747 224.241C67.4612 229.201 58.5314 231.712 47.2204 231.712H5V231.697ZM46.1395 213.112C50.6827 213.112 54.1606 212.248 56.4478 210.537C58.5941 208.936 59.6437 206.629 59.6437 203.474C59.6437 200.319 58.2494 194.307 46.1395 194.307H28.515V213.112H46.1395Z" fill="#C8102E"/>
<path d="M166.362 231.697L158.842 213.488H122.199L114.648 231.697H90.1147L129.703 142.712H151.683L191.397 231.697H166.378H166.362ZM151.009 194.542L140.56 169.271L130.064 194.542H151.009Z" fill="#C8102E"/>
<path d="M261.66 231.697V196.85H227.147V231.697H203.507V142.712H227.147V176.209H261.66V142.712H285.3V231.697H261.66Z" fill="#C8102E"/>
<path d="M363.255 231.697L335.369 197.964L331.437 201.983V231.697H308.643V142.696H331.437V172.959L361.187 142.696H391.266L352.351 182.456L393.177 231.697H363.255Z" fill="#C8102E"/>
</g>
<defs>
<clipPath id="clip0_2378_27">
<rect width="397.896" height="259.497" fill="white"/>
</clipPath>
</defs>
</svg>
